<?xml version="1.0" encoding="iso-8859-1"?>
<!-- Generator: Adobe Illustrator 19.0.0, SVG Export Plug-In . SVG Version: 6.00 Build 0)  -->
<svg version="1.1" id="Capa_1" xmlns="http://www.w3.org/2000/svg" xmlns:xlink="http://www.w3.org/1999/xlink" x="0px" y="0px"
	 viewBox="0 0 431.992 431.992" style="enable-background:new 0 0 431.992 431.992;" xml:space="preserve">
<path id="SVGCleanerId_0" style="fill:#FFFFFF;" d="M215.64,368c-70.576,0-128-57.424-128-128s57.424-128,128-128
	s128,57.424,128,128S286.216,368,215.64,368z"/>
<path style="fill:#CDD7DE;" d="M215.832,424c-101.456,0-184-82.536-184-184s82.544-184,184-184s184,82.536,184,184
	S317.288,424,215.832,424z"/>
<path style="fill:#FFFFFF;" d="M215.832,376c-74.984,0-136-61.008-136-136s61.016-136,136-136s136,61.008,136,136
	S290.816,376,215.832,376z"/>
<g>
	<path style="fill:#010101;" d="M215.832,96c-79.528,0-144,64.472-144,144s64.472,144,144,144s144-64.472,144-144
		S295.36,96,215.832,96z M215.832,368c-70.576,0-128-57.424-128-128c0-70.584,57.424-128,128-128s128,57.416,128,128
		C343.832,310.576,286.408,368,215.832,368z"/>
	<path style="fill:#010101;" d="M379.88,87.264l16.968,16.976l11.312-11.312l-45.256-45.256l-11.312,11.312l16.976,16.968
		l-22.896,22.896c-32.352-29.776-74.88-48.504-121.84-50.448V16h24V0h-64v16h24v32.4c-102.304,4.224-184,88.256-184,191.592
		c0,106.04,85.96,192,192,192s192-85.96,192-192c0-50.136-19.376-95.64-50.848-129.84L379.88,87.264z M215.832,416
		c-97.048,0-176-78.952-176-176s78.952-176,176-176s176,78.952,176,176S312.88,416,215.832,416z"/>
</g>
<g>
	<path id="SVGCleanerId_0_1_" style="fill:#FFFFFF;" d="M215.64,368c-70.576,0-128-57.424-128-128s57.424-128,128-128
		s128,57.424,128,128S286.216,368,215.64,368z"/>
</g>
<path style="fill:#D64230;" d="M184.784,239.568c0,17.032,13.832,30.856,30.856,30.856c17.064,0,30.856-13.832,30.856-30.856
	c0-6.72-28.992-105.064-30.672-111.576C214.216,134.248,184.784,233.12,184.784,239.568z"/>
<g>
</g>
<g>
</g>
<g>
</g>
<g>
</g>
<g>
</g>
<g>
</g>
<g>
</g>
<g>
</g>
<g>
</g>
<g>
</g>
<g>
</g>
<g>
</g>
<g>
</g>
<g>
</g>
<g>
</g>
</svg>
