<?xml version="1.0" encoding="iso-8859-1"?>
<!-- Generator: Adobe Illustrator 19.0.0, SVG Export Plug-In . SVG Version: 6.00 Build 0)  -->
<svg version="1.1" id="Capa_1" xmlns="http://www.w3.org/2000/svg" xmlns:xlink="http://www.w3.org/1999/xlink" x="0px" y="0px"
	 viewBox="0 0 432 432" style="enable-background:new 0 0 432 432;" xml:space="preserve">
<g>
	<path id="SVGCleanerId_0" style="fill:#CDD7DE;" d="M215.836,424c-101.456,0-184-82.536-184-184s82.544-184,184-184
		s184,82.536,184,184S317.292,424,215.836,424z"/>
</g>
<path style="fill:#FFFFFF;" d="M215.836,376c-74.984,0-136-61.008-136-136s61.016-136,136-136s136,61.008,136,136
	S290.82,376,215.836,376z"/>
<g>
	<path id="SVGCleanerId_1" style="fill:#010101;" d="M215.836,96c-79.528,0-144,64.472-144,144s64.472,144,144,144
		s144-64.472,144-144S295.364,96,215.836,96z M215.836,368c-70.576,0-128-57.424-128-128s57.424-128,128-128s128,57.424,128,128
		S286.412,368,215.836,368z"/>
</g>
<path style="fill:#010101;" d="M379.884,87.264l16.968,16.968l11.312-11.312l-45.256-45.256l-11.312,11.312l16.968,16.968
	L345.668,98.84c-32.352-29.776-74.88-48.504-121.84-50.448V16h24V0h-64v16h24v32.4C105.532,52.632,23.836,136.664,23.836,240
	c0,106.04,85.96,192,192,192s192-85.96,192-192c0-50.136-19.376-95.64-50.848-129.84L379.884,87.264z M215.836,416
	c-97.048,0-176-78.952-176-176s78.952-176,176-176s176,78.952,176,176S312.884,416,215.836,416z"/>
<g>
	<path id="SVGCleanerId_0_1_" style="fill:#CDD7DE;" d="M215.836,424c-101.456,0-184-82.536-184-184s82.544-184,184-184
		s184,82.536,184,184S317.292,424,215.836,424z"/>
</g>
<path id="SVGCleanerId_2" style="fill:#FFFFFF;" d="M215.836,376c-74.984,0-136-61.008-136-136s61.016-136,136-136
	s136,61.008,136,136S290.82,376,215.836,376z"/>
<g>
	<path id="SVGCleanerId_1_1_" style="fill:#010101;" d="M215.836,96c-79.528,0-144,64.472-144,144s64.472,144,144,144
		s144-64.472,144-144S295.364,96,215.836,96z M215.836,368c-70.576,0-128-57.424-128-128s57.424-128,128-128s128,57.424,128,128
		S286.412,368,215.836,368z"/>
</g>
<path id="SVGCleanerId_3" style="fill:#010101;" d="M379.884,87.264l16.968,16.968l11.312-11.312l-45.256-45.256l-11.312,11.312
	l16.968,16.968L345.668,98.84c-32.352-29.776-74.88-48.504-121.84-50.448V16h24V0h-64v16h24v32.4
	C105.532,52.632,23.836,136.664,23.836,240c0,106.04,85.96,192,192,192s192-85.96,192-192c0-50.136-19.376-95.64-50.848-129.84
	L379.884,87.264z M215.836,416c-97.048,0-176-78.952-176-176s78.952-176,176-176s176,78.952,176,176S312.884,416,215.836,416z"/>
<g>
	<path id="SVGCleanerId_0_2_" style="fill:#CDD7DE;" d="M215.836,424c-101.456,0-184-82.536-184-184s82.544-184,184-184
		s184,82.536,184,184S317.292,424,215.836,424z"/>
</g>
<g>
	<path id="SVGCleanerId_2_1_" style="fill:#FFFFFF;" d="M215.836,376c-74.984,0-136-61.008-136-136s61.016-136,136-136
		s136,61.008,136,136S290.82,376,215.836,376z"/>
</g>
<g>
	<path id="SVGCleanerId_1_2_" style="fill:#010101;" d="M215.836,96c-79.528,0-144,64.472-144,144s64.472,144,144,144
		s144-64.472,144-144S295.364,96,215.836,96z M215.836,368c-70.576,0-128-57.424-128-128s57.424-128,128-128s128,57.424,128,128
		S286.412,368,215.836,368z"/>
</g>
<g>
	<path id="SVGCleanerId_3_1_" style="fill:#010101;" d="M379.884,87.264l16.968,16.968l11.312-11.312l-45.256-45.256l-11.312,11.312
		l16.968,16.968L345.668,98.84c-32.352-29.776-74.88-48.504-121.84-50.448V16h24V0h-64v16h24v32.4
		C105.532,52.632,23.836,136.664,23.836,240c0,106.04,85.96,192,192,192s192-85.96,192-192c0-50.136-19.376-95.64-50.848-129.84
		L379.884,87.264z M215.836,416c-97.048,0-176-78.952-176-176s78.952-176,176-176s176,78.952,176,176S312.884,416,215.836,416z"/>
</g>
<path style="fill:#FFFFFF;" d="M215.644,368c-70.576,0-128-57.424-128-128s57.424-128,128-128s128,57.424,128,128
	S286.22,368,215.644,368z"/>
<path style="fill:#D5E2F2;" d="M215.396,128.28v111.696H103.66c0,61.608,50.12,111.736,111.736,111.736
	c61.608,0,111.736-50.088,111.736-111.704C327.116,178.424,276.996,128.28,215.396,128.28z"/>
<path style="fill:#D64230;" d="M215.42,268.784c15.896,0,28.8-12.904,28.8-28.8c0-15.928-12.904-28.8-28.8-28.8
	c-2.608,0-5.12,0.344-7.496,0.976l-88.496,22.864c-5.12,1.32-5.12,8.6,0,9.92l88.496,22.824
	C210.316,268.416,212.82,268.784,215.42,268.784z"/>
<circle style="fill:#A9352A;" cx="214.988" cy="240" r="12"/>
<g>
</g>
<g>
</g>
<g>
</g>
<g>
</g>
<g>
</g>
<g>
</g>
<g>
</g>
<g>
</g>
<g>
</g>
<g>
</g>
<g>
</g>
<g>
</g>
<g>
</g>
<g>
</g>
<g>
</g>
</svg>
